<svg height="20" viewBox="0 0 20 20" width="20" xmlns="http://www.w3.org/2000/svg"><path d="m1.97735213 6.56013503-1.13651933 1.70227054 2.09639012 1.26647109s1.39374676.69656454.72565634 2.00400614c-.61815831 1.2366527-3.66287926 3.9446726-3.66287926 3.9446726l2.72606608 1.6612999c1.88902786-3.9968168 1.76233375-3.4641562 2.23457956-4.9019588.48762498-1.4601717.59514533-2.5813619-.23035292-3.39711351-1.05971271-1.03924904-1.17875071-1.13611021-2.75294059-2.27964796zm5.13343265-4.06013503 2.51490923.69281826s-.20350073.47306707-.6373767 1.20687755c10.07876609-2.7862364 10.67391139 1.71344433 10.67391139 1.71344433l.0090162.04501456c.0773564.39809431.6146746 3.40944749.1253563 7.9486409-.5298563 4.8796112-7.0225051 3.0618565-7.0225051 3.0618565l.3493909-1.396832 1.5051063.3166124c2.7798151.1676285 2.5110477-2.2014098 2.5110477-2.2014098v-6.90596495c.0191961-2.6223325-2.5264045-2.8979743-7.0954502-1.29626787l1.0673911.28309099c-.0921411.30171398-.4338759.78223024-.875408 1.30744166h6.1048434v1.20685589h-3.4325263v1.51231612h3.4210086v1.21060216h-3.4210086v2.5291959c.5106602-.1676285.9905845-.3911043 1.3975859-.6965428l-.2994811-1.0988643 1.6126044-.4954146 1.3476762 3.2183329-1.9888921.8157516-.3532302-1.2888187c-.8907649.6667461-2.7414229 1.6352278-5.96663163 1.5495621-3.45174473.0856657-2.5609575-3.7994133-2.5609575-3.7994133l.08830195-.0484198h2.42274575c-.01151764.5028639-.22269681 1.3111663.06142745 1.7581612.23805367.3650321.8370159.4283502 1.22482129.4469949l.13437249.0037246v-2.8942497h-3.50933292v-1.20687757h3.50933292v-1.51231611h-.8984433c-.7871061.8157516-1.51278476 1.49741773-1.51278476 1.49741773l-1.05971271-.90888817c.75255316-.77475939 1.50126711-2.00398452 1.96969602-2.82346072-.39183614.15508245-.78096836.31651869-1.16723306.48424086-.38394385.4842192-.8370159.98335845-1.33999774 1.4750485.01919607.02979677-1.73929847-.96101087-1.73929847-.96101087 1.69899926-1.41430455 2.69943781-4.35093388 2.81785591-4.71248792zm-3.6437055.28309099c.99060683 0 1.79304747.70026746 1.79304747 1.57190966 0 .8641497-.80244064 1.56446047-1.79304747 1.56446047-.99826295 0-1.7930698-.70401371-1.79690902-1.56446047 0-.86791761.79862375-1.57190966 1.79690902-1.57190966z" fill="#555"/></svg>